<svg width="16" height="17" viewBox="0 0 16 17" fill="none" xmlns="http://www.w3.org/2000/svg">
<path d="M7.64006 9.65331C8.67467 9.65331 9.51339 8.81459 9.51339 7.77998C9.51339 6.74536 8.67467 5.90665 7.64006 5.90665C6.60544 5.90665 5.76672 6.74536 5.76672 7.77998C5.76672 8.81459 6.60544 9.65331 7.64006 9.65331Z" stroke="#999B9E" stroke-linecap="round" stroke-linejoin="round"/>
<path d="M11.1001 13.9667C11.1001 12.4133 9.55339 11.1466 7.64005 11.1466C5.72672 11.1466 4.18005 12.4067 4.18005 13.9667" stroke="#999B9E" stroke-linecap="round" stroke-linejoin="round"/>
<path d="M14 8.83333C14 12.3333 11.1667 15.1667 7.66671 15.1667C4.16671 15.1667 1.33337 12.3333 1.33337 8.83333C1.33337 5.33333 4.16671 2.5 7.66671 2.5C8.54004 2.5 9.37337 2.67333 10.1334 2.99333C10.0467 3.25999 10 3.54 10 3.83333C10 4.33333 10.14 4.80667 10.3867 5.20667C10.52 5.43333 10.6934 5.63998 10.8934 5.81331C11.36 6.23998 11.98 6.5 12.6667 6.5C12.96 6.5 13.24 6.45332 13.5 6.35999C13.82 7.11999 14 7.96 14 8.83333Z" stroke="#999B9E" stroke-linecap="round" stroke-linejoin="round"/>
<path d="M15.3333 3.83332C15.3333 4.04666 15.3067 4.25332 15.2533 4.45332C15.1933 4.71999 15.0867 4.97999 14.9467 5.20665C14.6267 5.74666 14.1133 6.16664 13.5 6.35998C13.24 6.45331 12.96 6.49999 12.6667 6.49999C11.98 6.49999 11.36 6.23997 10.8933 5.8133C10.6933 5.63997 10.52 5.43332 10.3867 5.20665C10.14 4.80665 10 4.33332 10 3.83332C10 3.53999 10.0467 3.25998 10.1333 2.99332C10.26 2.60665 10.4733 2.26 10.7533 1.97334C11.24 1.47334 11.92 1.16666 12.6667 1.16666C13.4533 1.16666 14.1667 1.50667 14.6467 2.05333C15.0733 2.52667 15.3333 3.15332 15.3333 3.83332Z" stroke="#999B9E" stroke-miterlimit="10" stroke-linecap="round" stroke-linejoin="round"/>
<path d="M13.66 3.81998H11.6733" stroke="#999B9E" stroke-miterlimit="10" stroke-linecap="round" stroke-linejoin="round"/>
<path d="M12.6666 2.84668V4.84001" stroke="#999B9E" stroke-miterlimit="10" stroke-linecap="round" stroke-linejoin="round"/>
</svg>
