<svg width="5" height="8" viewBox="0 0 5 8" fill="none" xmlns="http://www.w3.org/2000/svg">
<path d="M0.557047 6.58504C0.43699 6.7111 0.370974 6.8791 0.373097 7.05317C0.375219 7.22724 0.445311 7.39358 0.568407 7.51668C0.691502 7.63977 0.857844 7.70986 1.03191 7.71199C1.20598 7.71411 1.37399 7.64809 1.50005 7.52804L4.36205 4.66604C4.44964 4.57855 4.51913 4.47465 4.56654 4.36029C4.61395 4.24593 4.63836 4.12334 4.63836 3.99954C4.63836 3.87573 4.61395 3.75315 4.56654 3.63878C4.51913 3.52442 4.44964 3.42052 4.36205 3.33304L1.50005 0.472036C1.37399 0.351979 1.20598 0.285964 1.03191 0.288086C0.857844 0.290208 0.691502 0.360301 0.568407 0.483396C0.445311 0.606491 0.375219 0.772834 0.373097 0.946904C0.370974 1.12097 0.43699 1.28898 0.557047 1.41504L3.14005 4.00004L0.557047 6.58504Z" fill="#999B9E"/>
</svg>
