<svg width="8" height="5" viewBox="0 0 8 5" fill="none" xmlns="http://www.w3.org/2000/svg">
<path d="M6.4521 4.816C6.57816 4.93606 6.74616 5.00207 6.92023 4.99995C7.0943 4.99783 7.26065 4.92774 7.38374 4.80464C7.50684 4.68154 7.57693 4.5152 7.57905 4.34113C7.58117 4.16706 7.51516 3.99906 7.3951 3.873L4.5331 1.011C4.44561 0.923406 4.34172 0.853916 4.22735 0.806504C4.11299 0.759092 3.9904 0.734689 3.8666 0.734689C3.7428 0.734689 3.62021 0.759092 3.50585 0.806504C3.39149 0.853916 3.28759 0.923406 3.2001 1.011L0.339102 3.873C0.219045 3.99906 0.153029 4.16706 0.155151 4.34113C0.157274 4.5152 0.227366 4.68154 0.350461 4.80464C0.473556 4.92774 0.639899 4.99783 0.813969 4.99995C0.988039 5.00207 1.15604 4.93606 1.2821 4.816L3.8671 2.233L6.4521 4.816Z" fill="#999B9E"/>
</svg>
