<svg width="8" height="5" viewBox="0 0 8 5" fill="none" xmlns="http://www.w3.org/2000/svg">
<path d="M1.28227 0.184C1.15621 0.0639428 0.988211 -0.00207285 0.814141 4.96398e-05C0.640071 0.00217213 0.473729 0.0722646 0.350633 0.19536C0.227538 0.318455 0.157446 0.484798 0.155323 0.658868C0.153201 0.832938 0.219216 1.00094 0.339273 1.127L3.20127 3.989C3.28876 4.07659 3.39266 4.14608 3.50702 4.1935C3.62138 4.24091 3.74397 4.26531 3.86777 4.26531C3.99158 4.26531 4.11416 4.24091 4.22853 4.1935C4.34289 4.14608 4.44679 4.07659 4.53427 3.989L7.39527 1.127C7.51533 1.00094 7.58135 0.832938 7.57922 0.658868C7.5771 0.484798 7.50701 0.318455 7.38391 0.19536C7.26082 0.0722646 7.09448 0.00217213 6.92041 4.96398e-05C6.74634 -0.00207285 6.57833 0.0639428 6.45227 0.184L3.86727 2.767L1.28227 0.184Z" fill="#999B9E"/>
</svg>
