<svg width="14" height="15" viewBox="0 0 14 15" fill="none" xmlns="http://www.w3.org/2000/svg">
<path d="M7.54984 5.31246C7.54984 5.0087 7.3036 4.76246 6.99984 4.76246C6.69608 4.76246 6.44984 5.0087 6.44984 5.31246H7.54984ZM5.43299 9.08927C5.22461 9.31028 5.23486 9.65837 5.45587 9.86675C5.67689 10.0751 6.02498 10.0649 6.23335 9.84386L5.43299 9.08927ZM1.40625 1.96631C1.16906 2.15607 1.1306 2.50218 1.32036 2.73937C1.51011 2.97657 1.85623 3.01503 2.09342 2.82527L1.40625 1.96631ZM3.55175 1.6586C3.78895 1.46885 3.8274 1.12274 3.63765 0.885544C3.44789 0.64835 3.10178 0.609893 2.86459 0.799648L3.55175 1.6586ZM11.9063 2.82527C12.1434 3.01503 12.4896 2.97657 12.6793 2.73937C12.8691 2.50218 12.8306 2.15607 12.5934 1.96631L11.9063 2.82527ZM11.1351 0.799648C10.8979 0.609893 10.5518 0.64835 10.362 0.885544C10.1723 1.12274 10.2107 1.46885 10.4479 1.6586L11.1351 0.799648ZM6.45505 8.80696L6.05487 8.42966L6.45505 8.80696ZM6.44984 5.31246V7.43497H7.54984V5.31246H6.44984ZM6.23335 9.84386L6.85524 9.18426L6.05487 8.42966L5.43299 9.08927L6.23335 9.84386ZM2.09342 2.82527L3.55175 1.6586L2.86459 0.799648L1.40625 1.96631L2.09342 2.82527ZM12.5934 1.96631L11.1351 0.799648L10.4479 1.6586L11.9063 2.82527L12.5934 1.96631ZM12.2832 7.64579C12.2832 10.5637 9.91774 12.9291 6.99984 12.9291V14.0291C10.5253 14.0291 13.3832 11.1712 13.3832 7.64579H12.2832ZM6.99984 12.9291C4.08193 12.9291 1.7165 10.5637 1.7165 7.64579H0.616504C0.616504 11.1712 3.47442 14.0291 6.99984 14.0291V12.9291ZM1.7165 7.64579C1.7165 4.72789 4.08193 2.36246 6.99984 2.36246V1.26246C3.47442 1.26246 0.616504 4.12037 0.616504 7.64579H1.7165ZM6.99984 2.36246C9.91774 2.36246 12.2832 4.72789 12.2832 7.64579H13.3832C13.3832 4.12037 10.5253 1.26246 6.99984 1.26246V2.36246ZM6.44984 7.43497C6.44984 7.80477 6.30855 8.16059 6.05487 8.42966L6.85524 9.18426C7.30136 8.71107 7.54984 8.0853 7.54984 7.43497H6.44984Z" fill="#FAFAFA"/>
</svg>
