<svg width="17" height="17" viewBox="0 0 17 17" fill="none" xmlns="http://www.w3.org/2000/svg">
<path d="M4.09993 1.90002H12.8999C13.6333 1.90002 14.2333 2.50002 14.2333 3.23336V4.70002C14.2333 5.23336 13.8999 5.90002 13.5666 6.23336L10.6999 8.76669C10.2999 9.10002 10.0333 9.76669 10.0333 10.3V13.1667C10.0333 13.5667 9.7666 14.1 9.43327 14.3L8.49994 14.9C7.63327 15.4334 6.43327 14.8334 6.43327 13.7667V10.2334C6.43327 9.76669 6.1666 9.16669 5.89994 8.83336L3.3666 6.16669C3.03327 5.83336 2.7666 5.23336 2.7666 4.83336V3.30002C2.7666 2.50002 3.3666 1.90002 4.09993 1.90002Z" stroke="#999B9E" stroke-miterlimit="10" stroke-linecap="round" stroke-linejoin="round"/>
<path d="M7.78667 1.90002L4.5 7.16669" stroke="#999B9E" stroke-miterlimit="10" stroke-linecap="round" stroke-linejoin="round"/>
</svg>
