<svg width="12" height="12" viewBox="0 0 12 12" fill="none" xmlns="http://www.w3.org/2000/svg">
<path d="M11.1 6C11.5971 6 12.0069 6.40518 11.9326 6.89666C11.7833 7.88439 11.3889 8.82426 10.7792 9.62751C9.98723 10.671 8.87546 11.4266 7.61372 11.7789C6.35197 12.1313 5.00959 12.061 3.79154 11.5788C2.5735 11.0966 1.54673 10.229 0.86803 9.10852C0.189329 7.98803 -0.104007 6.6762 0.0328143 5.37335C0.169635 4.0705 0.729094 2.84823 1.62576 1.89317C2.52243 0.93812 3.70703 0.302772 4.99867 0.0841453C5.99296 -0.08415 7.00861 0.00161098 7.95316 0.326793C8.42314 0.488597 8.59241 1.03951 8.36218 1.48003C8.13196 1.92056 7.58867 2.0804 7.10926 1.94913C6.52305 1.78861 5.90538 1.75628 5.29907 1.8589C4.39492 2.01194 3.5657 2.45668 2.93803 3.12522C2.31037 3.79376 1.91874 4.64935 1.82297 5.56134C1.7272 6.47334 1.93253 7.39162 2.40762 8.17596C2.88271 8.96031 3.60145 9.56761 4.45408 9.90514C5.30671 10.2427 6.24638 10.2919 7.1296 10.0452C8.01283 9.79861 8.79106 9.26969 9.34547 8.53926C9.71725 8.04944 9.97468 7.48704 10.1039 6.89315C10.2096 6.40746 10.6029 6 11.1 6Z" fill="url(#paint0_angular_2441_102)"/>
<defs>
<radialGradient id="paint0_angular_2441_102" cx="0" cy="0" r="1" gradientUnits="userSpaceOnUse" gradientTransform="translate(6 6) rotate(114.444) scale(6.04152)">
<stop offset="0.503634" stop-color="#211B32"/>
<stop offset="0.695438" stop-color="#D9D9D9" stop-opacity="0"/>
<stop offset="1" stop-color="#211B32" stop-opacity="0.73"/>
</radialGradient>
</defs>
</svg>
