<svg width="16" height="17" viewBox="0 0 16 17" fill="none" xmlns="http://www.w3.org/2000/svg">
<path d="M7.99998 12.6333C9.47274 12.6333 10.6666 11.4394 10.6666 9.96665C10.6666 8.4939 9.47274 7.29999 7.99998 7.29999C6.52722 7.29999 5.33331 8.4939 5.33331 9.96665C5.33331 11.4394 6.52722 12.6333 7.99998 12.6333Z" stroke="#949496" stroke-miterlimit="10" stroke-linecap="round" stroke-linejoin="round"/>
<path d="M8.16665 9.13336V9.75336C8.16665 9.9867 8.04665 10.2067 7.83998 10.3267L7.33331 10.6334" stroke="#949496" stroke-miterlimit="10" stroke-linecap="round" stroke-linejoin="round"/>
<path d="M5.33332 15.1667H10.6667C13.3467 15.1667 13.8267 14.0933 13.9667 12.7867L14.4667 7.45333C14.6467 5.82667 14.18 4.5 11.3333 4.5H4.66665C1.81999 4.5 1.35332 5.82667 1.53332 7.45333L2.03332 12.7867C2.17332 14.0933 2.65332 15.1667 5.33332 15.1667Z" stroke="#949496" stroke-miterlimit="10" stroke-linecap="round" stroke-linejoin="round"/>
<path d="M5.33331 4.49998V3.96665C5.33331 2.78665 5.33331 1.83331 7.46665 1.83331H8.53331C10.6666 1.83331 10.6666 2.78665 10.6666 3.96665V4.49998" stroke="#949496" stroke-miterlimit="10" stroke-linecap="round" stroke-linejoin="round"/>
<path d="M14.4333 7.83331C13.28 8.67331 12 9.25998 10.6733 9.59331" stroke="#949496" stroke-miterlimit="10" stroke-linecap="round" stroke-linejoin="round"/>
<path d="M1.74664 8.01331C2.85998 8.77331 4.07331 9.31331 5.33331 9.61997" stroke="#949496" stroke-miterlimit="10" stroke-linecap="round" stroke-linejoin="round"/>
</svg>
