<svg width="80" height="81" viewBox="0 0 80 81" fill="none" xmlns="http://www.w3.org/2000/svg">
<path d="M75 40.5C77.7614 40.5 80.0322 38.2528 79.6879 35.5129C79.047 30.4126 77.4268 25.4674 74.8998 20.9551C71.5557 14.9838 66.7354 9.97036 60.8999 6.39439C55.0645 2.81842 48.4091 0.799531 41.5704 0.530838C34.7317 0.262145 27.9384 1.75264 21.8404 4.85974C15.7423 7.96685 10.5435 12.5866 6.74121 18.2772C2.9389 23.9678 0.660278 30.5388 0.123306 37.3616C-0.413666 44.1845 0.808974 51.0311 3.67428 57.2464C5.83945 61.943 8.88786 66.1605 12.6374 69.6769C14.6517 71.5659 17.8044 71.0496 19.4275 68.8156C21.0506 66.5816 20.5182 63.4801 18.5844 61.5088C16.1792 59.057 14.204 56.2013 12.7557 53.0598C10.6067 48.3983 9.68975 43.2634 10.0925 38.1462C10.4952 33.0291 12.2042 28.1008 15.0559 23.8329C17.9076 19.565 21.8068 16.1001 26.3803 13.7698C30.9538 11.4395 36.0488 10.3216 41.1778 10.5231C46.3068 10.7246 51.2984 12.2388 55.675 14.9208C60.0515 17.6028 63.6668 21.3629 66.1749 25.8414C67.8652 28.8596 69.0145 32.1361 69.5843 35.523C70.0424 38.2462 72.2386 40.5 75 40.5Z" fill="#32ADE6"/>
</svg>
