<svg width="11" height="11" viewBox="0 0 11 11" fill="none" xmlns="http://www.w3.org/2000/svg">
<g clip-path="url(#clip0_1764_4790)">
<path d="M2.32441 4.12508C3.36647 2.32018 3.8875 1.41773 4.56773 1.11487C5.16106 0.850706 5.83861 0.850706 6.43194 1.11487C7.11217 1.41773 7.6332 2.32018 8.67526 4.12508C9.71732 5.92998 10.2383 6.83243 10.1605 7.57296C10.0926 8.21888 9.75385 8.80566 9.22841 9.18741C8.62601 9.62508 7.58395 9.62508 5.49983 9.62508C3.41571 9.62508 2.37366 9.62508 1.77126 9.18741C1.24582 8.80566 0.90704 8.21888 0.839151 7.57296C0.761318 6.83243 1.28235 5.92998 2.32441 4.12508Z" fill="#1C1F25"/>
<path d="M5.49983 3.20841V5.95841M5.49983 9.62508C3.41571 9.62508 2.37366 9.62508 1.77126 9.18741C1.24582 8.80566 0.90704 8.21888 0.839151 7.57296C0.761318 6.83243 1.28235 5.92998 2.32441 4.12508C3.36647 2.32018 3.8875 1.41773 4.56773 1.11487C5.16106 0.850706 5.83861 0.850706 6.43194 1.11487C7.11217 1.41773 7.6332 2.32018 8.67526 4.12508C9.71732 5.92998 10.2383 6.83243 10.1605 7.57296C10.0926 8.21888 9.75385 8.80566 9.22841 9.18741C8.62601 9.62508 7.58395 9.62508 5.49983 9.62508Z" stroke="#E6543F" stroke-width="1.1" stroke-linecap="round"/>
<path d="M5.95817 7.33333C5.95817 7.58646 5.75297 7.79167 5.49984 7.79167C5.24671 7.79167 5.0415 7.58646 5.0415 7.33333C5.0415 7.0802 5.24671 6.875 5.49984 6.875C5.75297 6.875 5.95817 7.0802 5.95817 7.33333Z" fill="#E6543F"/>
</g>
<defs>
<clipPath id="clip0_1764_4790">
<rect width="11" height="11" fill="white"/>
</clipPath>
</defs>
</svg>
