<svg width="9" height="9" viewBox="0 0 9 9" fill="none" xmlns="http://www.w3.org/2000/svg">
<path fill-rule="evenodd" clip-rule="evenodd" d="M8.73525 4.7646C8.88136 4.7646 8.99995 4.88319 8.99995 5.02931V8.73529C8.99995 8.81205 8.9666 8.88459 8.90942 8.93435C8.86072 8.97724 8.79878 9 8.73525 9C8.72361 9 8.71143 8.99947 8.69978 8.99788L4.46461 8.41975C4.33332 8.40175 4.23538 8.28951 4.23538 8.15715V5.02931C4.23538 4.88319 4.35397 4.7646 4.50008 4.7646H8.73525ZM3.44129 4.7646C3.5874 4.7646 3.70599 4.88319 3.70599 5.02931V8.00362C3.70599 8.08039 3.67264 8.15292 3.61493 8.20322C3.56623 8.24557 3.50482 8.26833 3.44129 8.26833C3.42964 8.26833 3.41694 8.2678 3.40529 8.26569L0.228912 7.82521C0.097619 7.80721 0.000215619 7.6955 0.000215619 7.56314V5.02931C0.000215619 4.88319 0.118801 4.7646 0.264911 4.7646H3.44129ZM3.40508 0.733932C3.48078 0.722813 3.55702 0.746105 3.61472 0.796403C3.67296 0.846702 3.70578 0.919758 3.70578 0.995998V3.9703C3.70578 4.11695 3.58772 4.23501 3.44108 4.23501H0.264695C0.118586 4.23501 0 4.11695 0 3.9703V1.43648C0 1.30465 0.097408 1.19241 0.228696 1.17441L3.40508 0.733932ZM8.69983 0.0021571C8.77554 -0.00737283 8.85177 0.0148605 8.90947 0.0651587C8.96665 0.115457 9 0.187988 9 0.264223V3.9702C9 4.11685 8.88141 4.23491 8.7353 4.23491H4.50013C4.35402 4.23491 4.23543 4.11685 4.23543 3.9702V0.842351C4.23543 0.709997 4.33284 0.598286 4.46466 0.580286L8.69983 0.0021571Z" fill="#32ADE6"/>
</svg>
