<svg width="16" height="17" viewBox="0 0 16 17" fill="none" xmlns="http://www.w3.org/2000/svg">
<path d="M8.72726 15.0455V14.5455V15.0455ZM7.99999 15.0455L7.99999 15.5455H7.99999V15.0455ZM3.63635 10.6818H4.13635H3.63635ZM3.63635 6.3182L3.13635 6.31819L3.63635 6.3182ZM7.99999 1.95456V1.45456V1.95456ZM8.72726 1.95456V2.45456V1.95456ZM3.68112 5.02207L3.18728 4.94385L3.18728 4.94385L3.68112 5.02207ZM6.70386 1.99933L6.78208 2.49317L6.70386 1.99933ZM6.70386 15.0007L6.62565 15.4945H6.62565L6.70386 15.0007ZM3.68112 11.978L3.18728 12.0562L3.18728 12.0562L3.68112 11.978ZM11.2094 14.7182C11.4302 14.5524 11.4747 14.239 11.3089 14.0182C11.143 13.7974 10.8296 13.7528 10.6088 13.9187L11.2094 14.7182ZM10.6088 3.08135C10.8296 3.24719 11.143 3.20265 11.3089 2.98185C11.4747 2.76106 11.4302 2.44763 11.2094 2.28178L10.6088 3.08135ZM8.72726 8.00001C8.45112 8.00001 8.22726 8.22387 8.22726 8.50001C8.22726 8.77616 8.45112 9.00001 8.72726 9.00001V8.00001ZM13.0909 9.00001C13.367 9.00001 13.5909 8.77616 13.5909 8.50001C13.5909 8.22387 13.367 8.00001 13.0909 8.00001V9.00001ZM8.72726 14.5455H7.99999V15.5455H8.72726V14.5455ZM4.13635 10.6818L4.13635 6.3182L3.13635 6.31819L3.13635 10.6818H4.13635ZM7.99999 2.45456L8.72726 2.45456V1.45456L7.99999 1.45456V2.45456ZM4.13635 6.3182C4.13635 5.62345 4.1379 5.33429 4.17497 5.10029L3.18728 4.94385C3.1348 5.27518 3.13635 5.66166 3.13635 6.31819L4.13635 6.3182ZM7.99999 1.45456C7.34346 1.45456 6.95697 1.45301 6.62565 1.50548L6.78208 2.49317C7.01608 2.45611 7.30524 2.45456 7.99999 2.45456V1.45456ZM4.17497 5.10029C4.38752 3.75826 5.44005 2.70573 6.78208 2.49317L6.62565 1.50548C4.85573 1.78581 3.46761 3.17393 3.18728 4.94385L4.17497 5.10029ZM7.99999 14.5455C7.30524 14.5455 7.01608 14.5439 6.78208 14.5069L6.62565 15.4945C6.95697 15.547 7.34345 15.5455 7.99999 15.5455L7.99999 14.5455ZM3.13635 10.6818C3.13635 11.3384 3.1348 11.7248 3.18728 12.0562L4.17497 11.8997C4.1379 11.6657 4.13635 11.3766 4.13635 10.6818H3.13635ZM6.78208 14.5069C5.44005 14.2943 4.38752 13.2418 4.17497 11.8997L3.18728 12.0562C3.46761 13.8261 4.85573 15.2142 6.62565 15.4945L6.78208 14.5069ZM8.72726 15.5455C9.65787 15.5455 10.518 15.2376 11.2094 14.7182L10.6088 13.9187C10.0847 14.3124 9.4339 14.5455 8.72726 14.5455V15.5455ZM8.72726 2.45456C9.4339 2.45456 10.0847 2.68765 10.6088 3.08135L11.2094 2.28178C10.518 1.76248 9.65787 1.45456 8.72726 1.45456V2.45456ZM8.72726 9.00001H13.0909V8.00001H8.72726V9.00001Z" fill="#999B9E"/>
<path d="M10.4091 10.6818C10.4091 10.958 10.6329 11.1818 10.9091 11.1818C11.1852 11.1818 11.4091 10.958 11.4091 10.6818H10.4091ZM11.4091 6.31819C11.4091 6.04204 11.1852 5.81819 10.9091 5.81819C10.6329 5.81819 10.4091 6.04204 10.4091 6.31819H11.4091ZM11.4091 10.6818L11.4091 6.31819H10.4091L10.4091 10.6818H11.4091Z" fill="#999B9E"/>
</svg>
