<svg width="11" height="12" viewBox="0 0 11 12" fill="none" xmlns="http://www.w3.org/2000/svg">
<g clip-path="url(#clip0_1767_27150)">
<path d="M1.86116 9.76581L2.18444 9.32085L2.18444 9.32085L1.86116 9.76581ZM1.35417 9.25882L0.909214 9.5821L0.909214 9.5821L1.35417 9.25882ZM8.22184 9.76581L7.89856 9.32085H7.89856L8.22184 9.76581ZM8.72883 9.25882L8.28387 8.93554L8.28387 8.93554L8.72883 9.25882ZM1.35417 2.89814L0.909214 2.57485H0.909214L1.35417 2.89814ZM1.86116 2.39115L2.18444 2.83611V2.83611L1.86116 2.39115ZM4.13143 2.50674C4.43516 2.5031 4.67844 2.25392 4.6748 1.95019C4.67116 1.64645 4.42198 1.40318 4.11824 1.40682L4.13143 2.50674ZM9.71316 7.00174C9.7168 6.698 9.47353 6.44882 9.16979 6.44518C8.86606 6.44154 8.61688 6.68482 8.61324 6.98855L9.71316 7.00174ZM5.40705 7.91385L5.34631 7.36721L5.40705 7.91385ZM3.51882 7.77751L3.12991 8.16642L3.12991 8.16642L3.51882 7.77751ZM3.38247 5.88927L3.92911 5.95001L3.38247 5.88927ZM3.90823 4.79537L3.51932 4.40646L3.90823 4.79537ZM3.50285 5.27383L3.00713 5.03558V5.03558L3.50285 5.27383ZM6.50096 7.38809L6.88986 7.777L6.50096 7.38809ZM6.02249 7.79348L6.26075 8.28919L6.02249 7.79348ZM5.0415 9.65348C4.16994 9.65348 3.56044 9.65272 3.09199 9.60197C2.63383 9.55233 2.37626 9.46021 2.18444 9.32085L1.53788 10.2108C1.94846 10.5091 2.42175 10.6358 2.97351 10.6956C3.51497 10.7542 4.19444 10.7535 5.0415 10.7535V9.65348ZM0.366504 6.07848C0.366504 6.92554 0.365749 7.60501 0.424412 8.14647C0.484191 8.69823 0.610907 9.17152 0.909214 9.5821L1.79913 8.93554C1.65977 8.74372 1.56765 8.48615 1.51801 8.02799C1.46726 7.55954 1.4665 6.95004 1.4665 6.07848H0.366504ZM2.18444 9.32085C2.03659 9.21342 1.90656 9.08339 1.79913 8.93554L0.909214 9.5821C1.08449 9.82334 1.29664 10.0355 1.53788 10.2108L2.18444 9.32085ZM5.0415 10.7535C5.88857 10.7535 6.56804 10.7542 7.1095 10.6956C7.66125 10.6358 8.13454 10.5091 8.54513 10.2108L7.89856 9.32085C7.70675 9.46021 7.44918 9.55233 6.99102 9.60197C6.52256 9.65272 5.91307 9.65348 5.0415 9.65348V10.7535ZM8.28387 8.93554C8.17645 9.08339 8.04642 9.21342 7.89856 9.32085L8.54513 10.2108C8.78637 10.0355 8.99852 9.82334 9.17379 9.5821L8.28387 8.93554ZM1.4665 6.07848C1.4665 5.20691 1.46726 4.59742 1.51801 4.12896C1.56765 3.6708 1.65977 3.41323 1.79913 3.22142L0.909214 2.57485C0.610907 2.98544 0.484191 3.45873 0.424412 4.01048C0.365749 4.55194 0.366504 5.23141 0.366504 6.07848H1.4665ZM1.53788 1.94619C1.29664 2.12146 1.08449 2.33361 0.909214 2.57485L1.79913 3.22142C1.90656 3.07356 2.03659 2.94353 2.18444 2.83611L1.53788 1.94619ZM4.11824 1.40682C3.01631 1.42003 2.18505 1.47599 1.53788 1.94619L2.18444 2.83611C2.50576 2.60266 2.97501 2.5206 4.13143 2.50674L4.11824 1.40682ZM8.61324 6.98855C8.59938 8.14497 8.51732 8.61422 8.28387 8.93554L9.17379 9.5821C9.64399 8.93493 9.69995 8.10367 9.71316 7.00174L8.61324 6.98855ZM8.57412 4.53711L6.11205 6.99918L6.88986 7.777L9.35194 5.31493L8.57412 4.53711ZM4.29714 5.18428L6.75921 2.7222L5.9814 1.94438L3.51932 4.40646L4.29714 5.18428ZM5.34631 7.36721C4.80367 7.42751 4.45621 7.46475 4.20333 7.45659C3.96521 7.4489 3.92156 7.40244 3.90772 7.3886L3.12991 8.16642C3.4276 8.46411 3.8025 8.54422 4.16783 8.55601C4.51841 8.56733 4.9593 8.51698 5.46779 8.46049L5.34631 7.36721ZM2.83584 5.82854C2.77934 6.33702 2.72899 6.77792 2.74031 7.12849C2.75211 7.49383 2.83221 7.86872 3.12991 8.16642L3.90772 7.3886C3.89389 7.37476 3.84743 7.33111 3.83974 7.09299C3.83157 6.84012 3.86881 6.49266 3.92911 5.95001L2.83584 5.82854ZM3.51932 4.40646C3.32067 4.60511 3.1247 4.79095 3.00713 5.03558L3.99856 5.51208C4.01624 5.4753 4.04545 5.43596 4.29714 5.18428L3.51932 4.40646ZM3.92911 5.95001C3.96842 5.59625 3.98089 5.54887 3.99856 5.51208L3.00713 5.03558C2.88956 5.2802 2.86686 5.54931 2.83584 5.82854L3.92911 5.95001ZM6.11205 6.99918C5.86036 7.25087 5.82102 7.28008 5.78424 7.29776L6.26075 8.28919C6.50537 8.17162 6.69121 7.97566 6.88986 7.777L6.11205 6.99918ZM5.46779 8.46049C5.747 8.42946 6.01612 8.40677 6.26075 8.28919L5.78424 7.29776C5.74746 7.31544 5.70008 7.32791 5.34631 7.36721L5.46779 8.46049ZM8.57412 2.7222C8.89067 3.03875 9.08813 3.23787 9.21327 3.40187C9.32872 3.55319 9.3297 3.60841 9.3297 3.62965H10.4297C10.4297 3.2712 10.2779 2.9838 10.0878 2.73464C9.90737 2.49816 9.6465 2.23895 9.35194 1.94438L8.57412 2.7222ZM9.35194 5.31493C9.6465 5.02036 9.90737 4.76115 10.0878 4.52467C10.2779 4.27551 10.4297 3.98811 10.4297 3.62965H9.3297C9.3297 3.6509 9.32872 3.70612 9.21327 3.85744C9.08813 4.02144 8.89067 4.22056 8.57412 4.53711L9.35194 5.31493ZM9.35194 1.94438C9.05738 1.64982 8.79816 1.38895 8.56169 1.20853C8.31252 1.01843 8.02512 0.866626 7.66667 0.866626V1.96663C7.68791 1.96663 7.74313 1.9676 7.89445 2.08305C8.05846 2.20819 8.25757 2.40565 8.57412 2.7222L9.35194 1.94438ZM6.75921 2.7222C7.07576 2.40565 7.27488 2.20819 7.43889 2.08305C7.5902 1.9676 7.64543 1.96663 7.66667 1.96663V0.866626C7.30821 0.866626 7.02081 1.01843 6.77165 1.20853C6.53518 1.38895 6.27596 1.64982 5.9814 1.94438L6.75921 2.7222ZM9.35194 4.53711L6.75921 1.94438L5.9814 2.7222L8.57412 5.31493L9.35194 4.53711Z" fill="#949496"/>
</g>
<defs>
<clipPath id="clip0_1767_27150">
<rect width="11" height="11" fill="white" transform="translate(0 0.5)"/>
</clipPath>
</defs>
</svg>
