<svg width="14" height="15" viewBox="0 0 14 15" fill="none" xmlns="http://www.w3.org/2000/svg">
<path d="M2.37405 13.53L2.66794 13.1255L2.37405 13.53ZM1.63661 12.7926L2.04112 12.4987L1.63661 12.7926ZM12.3634 12.7926L11.9589 12.4987L12.3634 12.7926ZM11.626 13.53L11.9198 13.9345L11.626 13.53ZM11.626 2.80326L11.9198 2.39875L11.626 2.80326ZM12.3634 3.5407L11.9589 3.83459L12.3634 3.5407ZM2.37405 2.80326L2.66794 3.20776V3.20776L2.37405 2.80326ZM1.63661 3.5407L2.04112 3.83459L1.63661 3.5407ZM11.8119 10.2077L11.7337 9.71384L11.8119 10.2077ZM9.04104 12.9785L8.5472 12.9003V12.9003L9.04104 12.9785ZM8.5 2.83331C8.5 3.10946 8.72386 3.33331 9 3.33331C9.27614 3.33331 9.5 3.10946 9.5 2.83331H8.5ZM9.5 0.833313C9.5 0.557171 9.27614 0.333313 9 0.333313C8.72386 0.333313 8.5 0.557171 8.5 0.833313H9.5ZM4.5 2.83331C4.5 3.10946 4.72386 3.33331 5 3.33331C5.27614 3.33331 5.5 3.10946 5.5 2.83331H4.5ZM5.5 0.833313C5.5 0.557171 5.27614 0.333313 5 0.333313C4.72386 0.333313 4.5 0.557171 4.5 0.833313H5.5ZM12.9807 10.1666L13.4804 10.1838L12.9807 10.1666ZM9 14.1474L9.01712 14.6471L9 14.1474ZM7 13.6666C5.73895 13.6666 4.83333 13.666 4.13203 13.59C3.44009 13.515 3.00661 13.3716 2.66794 13.1255L2.08016 13.9345C2.61771 14.3251 3.24729 14.5 4.02432 14.5842C4.79198 14.6673 5.76123 14.6666 7 14.6666V13.6666ZM0.5 8.16665C0.5 9.40542 0.499314 10.3747 0.582485 11.1423C0.666671 11.9194 0.841549 12.5489 1.2321 13.0865L2.04112 12.4987C1.79506 12.16 1.65163 11.7266 1.57667 11.0346C1.50069 10.3333 1.5 9.42769 1.5 8.16665H0.5ZM2.66794 13.1255C2.42741 12.9508 2.21588 12.7392 2.04112 12.4987L1.2321 13.0865C1.46854 13.4119 1.75473 13.6981 2.08016 13.9345L2.66794 13.1255ZM11.9589 12.4987C11.7841 12.7392 11.5726 12.9508 11.3321 13.1255L11.9198 13.9345C12.2453 13.6981 12.5315 13.4119 12.7679 13.0865L11.9589 12.4987ZM13.5 8.16665C13.5 6.92787 13.5007 5.95863 13.4175 5.19096C13.3333 4.41394 13.1585 3.78435 12.7679 3.2468L11.9589 3.83459C12.2049 4.17326 12.3484 4.60673 12.4233 5.29868C12.4993 5.99997 12.5 6.9056 12.5 8.16665H13.5ZM11.3321 3.20776C11.5726 3.38252 11.7841 3.59405 11.9589 3.83459L12.7679 3.2468C12.5315 2.92137 12.2453 2.63519 11.9198 2.39875L11.3321 3.20776ZM1.5 8.16665C1.5 6.9056 1.50069 5.99997 1.57667 5.29868C1.65163 4.60674 1.79506 4.17326 2.04112 3.83459L1.2321 3.2468C0.841549 3.78435 0.666671 4.41394 0.582485 5.19096C0.499314 5.95863 0.5 6.92787 0.5 8.16665H1.5ZM2.08016 2.39875C1.75473 2.63519 1.46854 2.92137 1.2321 3.2468L2.04112 3.83459C2.21588 3.59405 2.42741 3.38252 2.66794 3.20776L2.08016 2.39875ZM11.7337 9.71384C10.0934 9.97363 8.80699 11.2601 8.5472 12.9003L9.53488 13.0567C9.7269 11.8444 10.6777 10.8935 11.8901 10.7015L11.7337 9.71384ZM5.5 2.83331V2.18593H4.5V2.83331H5.5ZM5.5 2.18593V0.833313H4.5V2.18593H5.5ZM7 1.66665C6.22348 1.66665 5.55616 1.66658 4.98288 1.68623L5.01712 2.68564C5.56963 2.66671 6.21795 2.66665 7 2.66665V1.66665ZM4.98288 1.68623C3.73392 1.72902 2.81593 1.86418 2.08016 2.39875L2.66794 3.20776C3.13831 2.86602 3.7805 2.72801 5.01712 2.68564L4.98288 1.68623ZM9.5 2.83331V2.18593H8.5V2.83331H9.5ZM9.5 2.18593V0.833313H8.5V2.18593H9.5ZM7 2.66665C7.78205 2.66665 8.43037 2.66671 8.98288 2.68564L9.01712 1.68623C8.44384 1.66658 7.77652 1.66665 7 1.66665V2.66665ZM8.98288 2.68564C10.2195 2.72801 10.8617 2.86602 11.3321 3.20776L11.9198 2.39875C11.1841 1.86418 10.2661 1.72902 9.01712 1.68623L8.98288 2.68564ZM12.9807 9.66665C12.3925 9.66665 12.0386 9.66555 11.7337 9.71384L11.8901 10.7015C12.098 10.6686 12.3559 10.6667 12.9807 10.6666L12.9807 9.66665ZM12.5 8.16665C12.5 8.9487 12.4999 9.59701 12.481 10.1495L13.4804 10.1838C13.5001 9.61048 13.5 8.94316 13.5 8.16665H12.5ZM12.481 10.1495C12.4386 11.3861 12.3006 12.0283 11.9589 12.4987L12.7679 13.0865C13.3025 12.3507 13.4376 11.4327 13.4804 10.1838L12.481 10.1495ZM9.5 14.1474C9.5 13.5225 9.50195 13.2647 9.53488 13.0567L8.5472 12.9003C8.4989 13.2052 8.5 13.5592 8.5 14.1474L9.5 14.1474ZM7 14.6666C7.77652 14.6666 8.44384 14.6667 9.01712 14.6471L8.98288 13.6477C8.43037 13.6666 7.78205 13.6666 7 13.6666V14.6666ZM9.01712 14.6471C10.2661 14.6043 11.1841 14.4691 11.9198 13.9345L11.3321 13.1255C10.8617 13.4673 10.2195 13.6053 8.98288 13.6477L9.01712 14.6471Z" fill="#949496"/>
<path d="M4.33333 5.49998C4.33333 5.86817 4.03486 6.16665 3.66667 6.16665C3.29848 6.16665 3 5.86817 3 5.49998C3 5.13179 3.29848 4.83331 3.66667 4.83331C4.03486 4.83331 4.33333 5.13179 4.33333 5.49998Z" fill="#949496"/>
<path d="M7.66667 8.16665C7.66667 8.53484 7.36819 8.83331 7 8.83331C6.63181 8.83331 6.33333 8.53484 6.33333 8.16665C6.33333 7.79846 6.63181 7.49998 7 7.49998C7.36819 7.49998 7.66667 7.79846 7.66667 8.16665Z" fill="#949496"/>
<path d="M11 5.49998C11 5.86817 10.7015 6.16665 10.3333 6.16665C9.96514 6.16665 9.66667 5.86817 9.66667 5.49998C9.66667 5.13179 9.96514 4.83331 10.3333 4.83331C10.7015 4.83331 11 5.13179 11 5.49998Z" fill="#949496"/>
<path d="M4.33333 10.8333C4.33333 11.2015 4.03486 11.5 3.66667 11.5C3.29848 11.5 3 11.2015 3 10.8333C3 10.4651 3.29848 10.1666 3.66667 10.1666C4.03486 10.1666 4.33333 10.4651 4.33333 10.8333Z" fill="#949496"/>
</svg>
